<svg version="1.1" id="Layer_1" xmlns="http://www.w3.org/2000/svg" xmlns:xlink="http://www.w3.org/1999/xlink" x="0px" y="0px"
	 width="100%" viewBox="0 0 734 733" enable-background="new 0 0 734 733" xml:space="preserve">
<path fill="#E3E3E3" opacity="1.000000" stroke="none" 
	d="
M733.000000,734.000000 
	C489.046234,734.000000 245.092438,734.000000 1.069329,734.000000 
	C1.069329,489.759186 1.069329,245.518341 1.069329,1.000000 
	C244.694626,1.000000 488.389374,1.000000 732.176270,1.362007 
	C732.479919,3.856459 732.876343,5.988872 732.876709,8.121350 
	C732.905396,171.448425 732.892944,334.775513 732.907410,498.102600 
	C732.914307,576.735046 732.967651,655.367554 733.000000,734.000000 
M591.159424,481.657135 
	C588.373962,477.257416 586.052002,472.466980 582.726624,468.522339 
	C563.378174,445.570587 543.870178,422.751343 524.200684,400.074280 
	C521.503418,396.964600 521.158997,394.582672 522.801758,390.961945 
	C526.075684,383.746155 528.868958,376.312317 532.217590,368.345795 
	C543.328918,343.793610 554.440308,319.241425 565.533569,294.729187 
	C565.515442,294.728363 565.210632,294.621033 565.000488,294.718201 
	C506.647858,321.706757 449.838104,351.636414 394.963745,385.128052 
	C370.446960,400.091461 346.609192,416.167480 322.123291,431.187531 
	C321.989990,431.017822 321.856689,430.848083 322.015839,430.075226 
	C364.261322,395.262848 409.802917,365.249451 458.127380,337.731689 
	C451.966858,335.458160 446.997498,333.624237 441.340759,331.536621 
	C452.914429,316.930389 463.777802,302.862579 475.028412,289.111572 
	C489.446533,271.489075 504.176300,254.121536 519.282898,236.246033 
	C519.422119,235.844284 519.561340,235.442535 519.700562,235.040771 
	C519.099854,235.324203 518.499084,235.607635 517.212219,236.041275 
	C514.666931,237.605576 512.081848,239.109039 509.582642,240.743683 
	C487.063416,255.472519 464.559265,270.224365 441.681427,284.407684 
	C432.772980,274.607666 423.864532,264.807648 414.807037,254.296768 
	C416.252930,252.509964 417.574524,250.603470 419.162964,248.953934 
	C456.643433,210.031738 497.752197,175.194077 540.137390,141.815079 
	C550.793457,133.423248 561.836060,125.522301 572.700989,117.395752 
	C572.539612,116.974854 572.378174,116.553963 572.216736,116.133064 
	C507.026917,139.541183 441.837097,162.949310 376.647278,186.357437 
	C412.058960,139.499390 449.331116,95.068611 500.416534,63.022762 
	C498.392700,63.022762 497.718201,62.939819 497.070129,63.035568 
	C490.508942,64.004906 483.937469,64.915848 477.396423,66.008224 
	C439.687866,72.305695 402.534973,80.819481 366.722748,94.457970 
	C325.859253,110.020149 288.406799,131.147552 255.879166,160.847351 
	C221.697571,192.057327 198.953568,229.743225 188.445572,274.779358 
	C187.940857,276.942505 188.477158,279.775146 189.509689,281.794373 
	C193.362869,289.329681 197.725311,296.602539 201.702896,304.076965 
	C204.998047,310.268982 208.020325,316.606201 211.163513,322.879089 
	C210.893127,323.047699 210.622742,323.216339 210.352371,323.384949 
	C206.070358,320.859741 201.788361,318.334564 196.353119,315.129272 
	C208.868271,349.810577 220.869232,383.067047 232.812378,416.163269 
	C255.625153,400.945404 277.931061,386.065643 301.197510,370.545166 
	C299.303650,386.189270 295.786682,399.907898 289.382599,413.082428 
	C287.964661,413.050201 286.546753,413.017975 285.113678,412.221619 
	C285.723572,409.560852 286.333435,406.900055 286.943329,404.239288 
	C286.526764,403.877716 286.110229,403.516174 285.693665,403.154602 
	C257.589233,422.765198 229.484818,442.375763 200.974380,462.269653 
	C220.564499,497.523773 238.409851,532.489502 253.360641,569.627930 
	C258.396454,583.455322 263.432251,597.282715 268.787476,611.859314 
	C273.430908,628.455139 276.319611,645.320068 276.413177,662.800659 
	C329.926086,591.887024 394.544861,532.429993 462.269623,476.039062 
	C464.892303,479.403625 467.006165,482.643066 469.655365,485.360657 
	C472.138794,487.908203 472.220734,489.546600 469.748657,492.316742 
	C425.324646,542.096375 382.939545,593.580261 341.698120,646.014221 
	C335.316742,654.127502 328.976990,662.273499 322.618011,670.404419 
	C323.981079,670.720825 324.710571,670.418152 325.326752,669.962280 
	C340.031647,659.083191 354.557068,647.953003 369.449493,637.337524 
	C422.231293,599.714233 475.062805,562.159424 528.034485,524.804138 
	C548.668884,510.252869 569.725586,496.300323 591.159424,481.657135 
z"/>
<path fill="#212121" opacity="1.000000" stroke="none" 
	d="
M733.500000,734.000000 
	C732.967651,655.367554 732.914307,576.735046 732.907410,498.102600 
	C732.892944,334.775513 732.905396,171.448425 732.876709,8.121350 
	C732.876343,5.988872 732.479919,3.856459 732.634155,1.362015 
	C733.666687,1.333349 734.783630,1.548030 734.909058,2.023970 
	C735.196533,3.114891 735.000000,4.333333 735.000000,5.500000 
	C735.000000,246.833328 735.001831,488.166656 734.958740,729.500000 
	C734.958496,731.000061 734.333374,732.500000 733.500000,734.000000 
z"/>
<path fill="#111312" opacity="1.000000" stroke="none" 
	d="
M290.233887,413.107269 
	C295.786682,399.907898 299.303650,386.189270 301.197510,370.545166 
	C277.931061,386.065643 255.625153,400.945404 232.812378,416.163269 
	C220.869232,383.067047 208.868271,349.810577 196.353119,315.129272 
	C201.788361,318.334564 206.070358,320.859741 210.352371,323.384949 
	C210.622742,323.216339 210.893127,323.047699 211.163513,322.879089 
	C208.020325,316.606201 204.998047,310.268982 201.702896,304.076965 
	C197.725311,296.602539 193.362869,289.329681 189.509689,281.794373 
	C188.477158,279.775146 187.940857,276.942505 188.445572,274.779358 
	C198.953568,229.743225 221.697571,192.057327 255.879166,160.847351 
	C288.406799,131.147552 325.859253,110.020149 366.722748,94.457970 
	C402.534973,80.819481 439.687866,72.305695 477.396423,66.008224 
	C483.937469,64.915848 490.508942,64.004906 497.070129,63.035568 
	C497.718201,62.939819 498.392700,63.022762 500.416534,63.022762 
	C449.331116,95.068611 412.058960,139.499390 376.647278,186.357437 
	C441.837097,162.949310 507.026917,139.541183 572.216736,116.133064 
	C572.378174,116.553963 572.539612,116.974854 572.700989,117.395752 
	C561.836060,125.522301 550.793457,133.423248 540.137390,141.815079 
	C497.752197,175.194077 456.643433,210.031738 419.162964,248.953934 
	C417.574524,250.603470 416.252930,252.509964 414.536804,254.661804 
	C403.859711,265.693848 393.452850,276.360870 383.004425,287.260803 
	C382.962860,287.493652 382.938049,287.966125 382.953918,287.987732 
	C382.969818,288.009308 382.970428,287.955872 382.742676,288.060242 
	C382.327484,288.434814 382.140076,288.705048 381.976379,288.987518 
	C382.000061,288.999756 381.974579,288.952789 381.747894,289.060699 
	C381.331055,289.439758 381.140930,289.710907 380.977966,289.984863 
	C381.005157,289.987701 380.965698,289.949829 380.678040,290.123505 
	C373.967834,299.317017 367.133698,308.077698 361.244354,317.433228 
	C355.893311,325.933594 351.569885,335.080902 346.518677,344.148743 
	C344.495239,348.236328 342.746552,352.118164 340.734924,356.259033 
	C340.039795,358.797485 339.607635,361.076874 339.175446,363.356293 
	C339.528137,363.576782 339.880829,363.797302 340.233521,364.017792 
	C343.159180,361.359955 346.084839,358.702118 349.308899,355.887451 
	C350.947754,354.751953 352.311340,353.803253 353.625183,352.790039 
	C373.453461,337.497986 393.254364,322.170258 413.107513,306.910583 
	C422.706055,299.532867 432.399963,292.279236 442.050690,284.969452 
	C464.559265,270.224365 487.063416,255.472519 509.582642,240.743683 
	C512.081848,239.109039 514.666931,237.605576 517.768433,236.160461 
	C518.473755,236.401154 518.622803,236.522659 518.771790,236.644135 
	C504.176300,254.121536 489.446533,271.489075 475.028412,289.111572 
	C463.777802,302.862579 452.914429,316.930389 441.340759,331.536621 
	C446.997498,333.624237 451.966858,335.458160 458.127380,337.731689 
	C409.802917,365.249451 364.261322,395.262848 321.542236,430.450348 
	C320.743530,431.092926 320.418396,431.360382 320.093262,431.627869 
	C320.883270,431.664764 321.673248,431.701660 322.463257,431.738525 
	C346.609192,416.167480 370.446960,400.091461 394.963745,385.128052 
	C449.838104,351.636414 506.647858,321.706757 565.000488,294.718201 
	C565.210632,294.621033 565.515442,294.728363 565.533569,294.729187 
	C554.440308,319.241425 543.328918,343.793610 531.688843,368.708069 
	C508.316071,381.683838 484.903290,393.381470 462.764954,407.131042 
	C431.562805,426.509857 401.162476,447.197937 370.707642,467.753387 
	C357.101532,476.936737 344.196533,487.158905 330.663269,497.055908 
	C329.145203,498.064117 327.862000,498.838593 326.741180,499.802002 
	C318.803986,506.624237 310.652618,513.222290 303.038727,520.390320 
	C288.513611,534.064758 274.301086,548.071228 259.682495,562.121094 
	C257.336975,564.511780 255.267700,566.721252 253.198456,568.930725 
	C238.409851,532.489502 220.564499,497.523773 200.974380,462.269653 
	C229.484818,442.375763 257.589233,422.765198 285.693665,403.154602 
	C286.110229,403.516174 286.526764,403.877716 286.943329,404.239288 
	C286.333435,406.900055 285.723572,409.560852 284.957397,412.959717 
	C281.049835,426.327301 277.298615,438.956818 273.547394,451.586334 
	C274.181824,451.809723 274.816254,452.033112 275.450714,452.256500 
	C280.378448,439.206757 285.306183,426.157013 290.233887,413.107269 
M339.830933,238.530121 
	C300.246521,258.397339 265.510468,284.347321 237.841278,319.325928 
	C239.808960,319.776123 241.431946,319.686157 243.030396,319.438019 
	C261.399841,316.586426 278.547424,310.048187 295.378998,302.401520 
	C301.551392,299.597351 305.633820,295.477203 309.161713,289.591644 
	C319.392578,272.523682 330.460602,255.957581 341.749481,238.920959 
	C341.763641,238.634979 341.777802,238.349014 341.791962,238.063034 
	C341.366028,238.138916 340.940125,238.214798 339.830933,238.530121 
z"/>
<path fill="#121313" opacity="1.000000" stroke="none" 
	d="
M590.589966,482.075012 
	C569.725586,496.300323 548.668884,510.252869 528.034485,524.804138 
	C475.062805,562.159424 422.231293,599.714233 369.449493,637.337524 
	C354.557068,647.953003 340.031647,659.083191 325.326752,669.962280 
	C324.710571,670.418152 323.981079,670.720825 322.618011,670.404419 
	C328.976990,662.273499 335.316742,654.127502 341.698120,646.014221 
	C382.939545,593.580261 425.324646,542.096375 469.748657,492.316742 
	C472.220734,489.546600 472.138794,487.908203 469.655365,485.360657 
	C467.006165,482.643066 464.892303,479.403625 462.269623,476.039062 
	C394.544861,532.429993 329.926086,591.887024 276.413177,662.800659 
	C276.319611,645.320068 273.430908,628.455139 268.960846,611.339478 
	C274.125183,604.821960 279.180084,598.876160 284.092346,592.814819 
	C291.917603,583.158936 299.403931,573.216553 307.497925,563.794189 
	C313.628418,556.657593 320.622772,550.271118 326.987030,543.325684 
	C342.685272,526.194031 357.728088,508.429047 373.979645,491.844940 
	C396.803955,468.553711 421.667419,447.489899 447.602905,427.669830 
	C453.057190,423.501617 457.985443,422.374573 464.022491,424.892029 
	C485.793854,433.970703 507.798645,442.541016 529.242188,452.338837 
	C547.683105,460.764709 565.460388,470.639526 583.582275,479.771973 
	C585.753601,480.866180 588.246277,481.322845 590.589966,482.075012 
z"/>
<path fill="#343635" opacity="1.000000" stroke="none" 
	d="
M590.874695,481.866089 
	C588.246277,481.322845 585.753601,480.866180 583.582275,479.771973 
	C565.460388,470.639526 547.683105,460.764709 529.242188,452.338837 
	C507.798645,442.541016 485.793854,433.970703 464.022491,424.892029 
	C457.985443,422.374573 453.057190,423.501617 447.602905,427.669830 
	C421.667419,447.489899 396.803955,468.553711 373.979645,491.844940 
	C357.728088,508.429047 342.685272,526.194031 326.987030,543.325684 
	C320.622772,550.271118 313.628418,556.657593 307.497925,563.794189 
	C299.403931,573.216553 291.917603,583.158936 284.092346,592.814819 
	C279.180084,598.876160 274.125183,604.821960 268.801147,610.964844 
	C263.432251,597.282715 258.396454,583.455322 253.279541,569.279297 
	C255.267700,566.721252 257.336975,564.511780 259.856812,562.427612 
	C264.965515,564.967957 269.968506,562.617493 271.138824,557.972534 
	C271.605652,556.119629 273.544220,554.592896 274.944061,553.035706 
	C275.859619,552.017273 277.031311,551.233093 278.053162,550.305298 
	C282.257111,546.488281 286.490143,542.701721 290.631348,538.817505 
	C294.955200,534.761902 302.735626,534.419739 303.604279,526.496704 
	C303.728607,525.362732 305.904907,524.021118 307.376984,523.561157 
	C310.098389,522.710876 312.571289,522.290405 311.334045,518.357056 
	C311.131989,517.714661 312.901611,516.058899 314.063263,515.458313 
	C316.943695,513.968994 320.396149,513.330872 322.884216,511.402832 
	C325.955475,509.022797 328.283417,505.683624 330.973328,502.713898 
	C330.973328,500.992798 330.973328,498.951202 330.973328,496.909668 
	C344.196533,487.158905 357.101532,476.936737 370.707642,467.753387 
	C401.162476,447.197937 431.562805,426.509857 462.764954,407.131042 
	C484.903290,393.381470 508.316071,381.683838 531.510437,369.019470 
	C528.868958,376.312317 526.075684,383.746155 522.801758,390.961945 
	C521.158997,394.582672 521.503418,396.964600 524.200684,400.074280 
	C543.870178,422.751343 563.378174,445.570587 582.726624,468.522339 
	C586.052002,472.466980 588.373962,477.257416 590.874695,481.866089 
M279.502289,552.735413 
	C279.741455,552.987671 279.978394,553.242310 280.232086,553.479004 
	C280.238617,553.485046 280.428741,553.294312 280.533234,553.195435 
	C280.293793,552.943115 280.054352,552.690735 279.502289,552.735413 
z"/>
<path fill="#333434" opacity="1.000000" stroke="none" 
	d="
M441.866058,284.688568 
	C432.399963,292.279236 422.706055,299.532867 413.107513,306.910583 
	C393.254364,322.170258 373.453461,337.497986 353.625183,352.790039 
	C352.311340,353.803253 350.947754,354.751953 349.143127,355.650696 
	C346.118622,355.713837 343.558228,355.856903 340.997864,356.000000 
	C342.746552,352.118164 344.495239,348.236328 346.951904,344.167175 
	C350.258392,344.087097 352.273224,343.969696 353.242615,340.595825 
	C354.100128,337.611298 355.687073,333.671356 358.089844,332.512451 
	C365.525909,328.925903 363.006683,320.365967 367.690521,315.466583 
	C369.906952,313.148193 369.765930,308.404022 372.101959,306.407013 
	C377.359528,301.912476 379.438110,296.194000 380.965698,289.949829 
	C380.965698,289.949829 381.005157,289.987701 381.202789,289.873352 
	C381.591827,289.490265 381.783203,289.221527 381.974579,288.952789 
	C381.974579,288.952789 382.000061,288.999756 382.198944,288.876312 
	C382.675232,288.549377 382.866089,288.283722 382.970428,287.955872 
	C382.970428,287.955872 382.969818,288.009308 383.114563,287.915527 
	C383.327820,287.728790 383.474548,287.590363 383.451416,287.550598 
	C383.341644,287.361633 383.185608,287.199554 383.045990,287.027924 
	C393.452850,276.360870 403.859711,265.693848 414.611328,255.017227 
	C423.864532,264.807648 432.772980,274.607666 441.866058,284.688568 
M380.555847,297.511353 
	C380.555847,297.511353 380.480316,297.550018 380.555847,297.511353 
z"/>
<path fill="#D0D0D0" opacity="1.000000" stroke="none" 
	d="
M289.808258,413.094849 
	C285.306183,426.157013 280.378448,439.206757 275.450714,452.256500 
	C274.816254,452.033112 274.181824,451.809723 273.547394,451.586334 
	C277.298615,438.956818 281.049835,426.327301 284.964966,413.341736 
	C286.546753,413.017975 287.964661,413.050201 289.808258,413.094849 
z"/>
<path fill="#111312" opacity="1.000000" stroke="none" 
	d="
M518.111572,236.085358 
	C518.499084,235.607635 519.099854,235.324203 519.700562,235.040771 
	C519.561340,235.442535 519.422119,235.844284 519.027344,236.445099 
	C518.622803,236.522659 518.473755,236.401154 518.111572,236.085358 
z"/>
<path fill="#E2E2E2" opacity="1.000000" stroke="none" 
	d="
M341.200104,239.194550 
	C330.460602,255.957581 319.392578,272.523682 309.161713,289.591644 
	C305.633820,295.477203 301.551392,299.597351 295.378998,302.401520 
	C278.547424,310.048187 261.399841,316.586426 243.030396,319.438019 
	C241.431946,319.686157 239.808960,319.776123 237.841278,319.325928 
	C265.510468,284.347321 300.246521,258.397339 340.332947,238.644791 
	C340.956665,238.904495 341.078369,239.049515 341.200104,239.194550 
z"/>
<path fill="#3A3B3B" opacity="1.000000" stroke="none" 
	d="
M330.663269,497.055908 
	C330.973328,498.951202 330.973328,500.992798 330.973328,502.713898 
	C328.283417,505.683624 325.955475,509.022797 322.884216,511.402832 
	C320.396149,513.330872 316.943695,513.968994 314.063263,515.458313 
	C312.901611,516.058899 311.131989,517.714661 311.334045,518.357056 
	C312.571289,522.290405 310.098389,522.710876 307.376984,523.561157 
	C305.904907,524.021118 303.728607,525.362732 303.604279,526.496704 
	C302.735626,534.419739 294.955200,534.761902 290.631348,538.817505 
	C286.490143,542.701721 282.257111,546.488281 278.053162,550.305298 
	C277.031311,551.233093 275.859619,552.017273 274.944061,553.035706 
	C273.544220,554.592896 271.605652,556.119629 271.138824,557.972534 
	C269.968506,562.617493 264.965515,564.967957 260.133087,562.246338 
	C274.301086,548.071228 288.513611,534.064758 303.038727,520.390320 
	C310.652618,513.222290 318.803986,506.624237 326.741180,499.802002 
	C327.862000,498.838593 329.145203,498.064117 330.663269,497.055908 
z"/>
<path fill="#3C3D3D" opacity="1.000000" stroke="none" 
	d="
M380.678040,290.123505 
	C379.438110,296.194000 377.359528,301.912476 372.101959,306.407013 
	C369.765930,308.404022 369.906952,313.148193 367.690521,315.466583 
	C363.006683,320.365967 365.525909,328.925903 358.089844,332.512451 
	C355.687073,333.671356 354.100128,337.611298 353.242615,340.595825 
	C352.273224,343.969696 350.258392,344.087097 347.226685,343.961426 
	C351.569885,335.080902 355.893311,325.933594 361.244354,317.433228 
	C367.133698,308.077698 373.967834,299.317017 380.678040,290.123505 
z"/>
<path fill="#2A2C2B" opacity="1.000000" stroke="none" 
	d="
M340.734924,356.259033 
	C343.558228,355.856903 346.118622,355.713837 348.844727,355.807495 
	C346.084839,358.702118 343.159180,361.359955 340.233521,364.017792 
	C339.880829,363.797302 339.528137,363.576782 339.175446,363.356293 
	C339.607635,361.076874 340.039795,358.797485 340.734924,356.259033 
z"/>
<path fill="#E3E3E3" opacity="1.000000" stroke="none" 
	d="
M322.293274,431.463043 
	C321.673248,431.701660 320.883270,431.664764 320.093262,431.627869 
	C320.418396,431.360382 320.743530,431.092926 321.396027,430.751923 
	C321.856689,430.848083 321.989990,431.017822 322.293274,431.463043 
z"/>
<path fill="#3C3D3D" opacity="1.000000" stroke="none" 
	d="
M381.747894,289.060699 
	C381.783203,289.221527 381.591827,289.490265 381.175598,289.870514 
	C381.140930,289.710907 381.331055,289.439758 381.747894,289.060699 
z"/>
<path fill="#3C3D3D" opacity="1.000000" stroke="none" 
	d="
M382.742676,288.060242 
	C382.866089,288.283722 382.675232,288.549377 382.175232,288.864075 
	C382.140076,288.705048 382.327484,288.434814 382.742676,288.060242 
z"/>
<path fill="#3C3D3D" opacity="1.000000" stroke="none" 
	d="
M383.004425,287.260803 
	C383.185608,287.199554 383.341644,287.361633 383.451416,287.550598 
	C383.474548,287.590363 383.327820,287.728790 383.098694,287.893921 
	C382.938049,287.966125 382.962860,287.493652 383.004425,287.260803 
z"/>
<path fill="#E2E2E2" opacity="1.000000" stroke="none" 
	d="
M340.674561,238.525070 
	C340.940125,238.214798 341.366028,238.138916 341.791962,238.063034 
	C341.777802,238.349014 341.763641,238.634979 341.474792,239.057755 
	C341.078369,239.049515 340.956665,238.904495 340.674561,238.525070 
z"/>
<path fill="#3A3B3B" opacity="1.000000" stroke="none" 
	d="
M279.658600,552.586914 
	C280.054352,552.690735 280.293793,552.943115 280.533234,553.195435 
	C280.428741,553.294312 280.238617,553.485046 280.232086,553.479004 
	C279.978394,553.242310 279.741455,552.987671 279.658600,552.586914 
z"/>
<path fill="#3C3D3D" opacity="1.000000" stroke="none" 
	d="
M380.518066,297.530701 
	C380.480316,297.550018 380.555847,297.511353 380.518066,297.530701 
z"/>
</svg>